<svg width="1920" height="580" viewBox="0 0 1920 580" fill="none" xmlns="http://www.w3.org/2000/svg">
<g clip-path="url(#clip0_105_2)">
<rect x="824" y="263" width="272" height="54" stroke="white" stroke-width="2"/>
<rect x="83" y="59" width="1765" height="476" stroke="white" stroke-width="2"/>
<rect x="245" y="144" width="1428" height="313" stroke="white" stroke-width="2"/>
<rect x="404" y="193" width="1112" height="211" stroke="white" stroke-width="2"/>
<path d="M1919 -1C1748.5 150 1387.54 252.051 1095 263" stroke="white" stroke-width="2"/>
<path d="M823.877 263C523.163 246.718 190.53 153.024 -0.123187 -1.00022" stroke="white" stroke-width="2"/>
<path d="M903.5 263.5C798 230 630.5 125.5 536 1.00004" stroke="white" stroke-width="2"/>
<path d="M1007.5 263.5C1091.5 231.5 1241.5 102.5 1317.5 2.5" stroke="white" stroke-width="2"/>
<path d="M824.305 316.952C449.5 375.5 169 469.5 0.305187 580.952" stroke="white" stroke-width="2"/>
<path d="M1095.31 314.048C1381.5 362.5 1690.5 434.999 1920.31 579.048" stroke="white" stroke-width="2"/>
<path d="M1006.63 317.224C1134 375.5 1215 444 1327.63 578.224" stroke="white" stroke-width="2"/>
<path d="M906.599 318.801C782.5 375.5 656.5 478.5 557.599 579.801" stroke="white" stroke-width="2"/>
<rect x="517" y="223" width="891" height="154" stroke="white" stroke-width="2"/>
<rect x="613.5" y="238.5" width="710" height="118" stroke="white"/>
<rect x="719.5" y="255.5" width="493" height="79" stroke="white"/>
</g>
<defs>
<clipPath id="clip0_105_2">
<rect width="1920" height="580" fill="white"/>
</clipPath>
</defs>
</svg>
